<svg width="28" height="28" viewBox="0 0 28 28" fill="none" xmlns="http://www.w3.org/2000/svg">
<path fill-rule="evenodd" clip-rule="evenodd" d="M14 0C6.26801 0 0 6.26801 0 14C0 21.732 6.26801 28 14 28C21.732 28 28 21.732 28 14C28 6.26801 21.732 0 14 0ZM10.9219 6.57844C11.7184 6.5422 11.9729 6.53333 14.0007 6.53333H13.9984C16.0268 6.53333 16.2804 6.5422 17.0768 6.57844C17.8717 6.61485 18.4146 6.74069 18.8906 6.92534C19.3822 7.11589 19.7975 7.37101 20.2129 7.78635C20.6282 8.20137 20.8833 8.61796 21.0747 9.10905C21.2582 9.58381 21.3842 10.1264 21.4216 10.9213C21.4573 11.7177 21.4667 11.9722 21.4667 14.0001C21.4667 16.0279 21.4573 16.2818 21.4216 17.0782C21.3842 17.8728 21.2582 18.4156 21.0747 18.8905C20.8833 19.3814 20.6282 19.798 20.2129 20.213C19.798 20.6284 19.382 20.8841 18.8911 21.0748C18.416 21.2595 17.8728 21.3853 17.0779 21.4217C16.2815 21.458 16.0278 21.4668 13.9998 21.4668C11.9721 21.4668 11.7177 21.458 10.9213 21.4217C10.1265 21.3853 9.58381 21.2595 9.10874 21.0748C8.61796 20.8841 8.20137 20.6284 7.7865 20.213C7.37132 19.798 7.11621 19.3814 6.92534 18.8903C6.74085 18.4156 6.615 17.873 6.57844 17.0781C6.54236 16.2816 6.53333 16.0279 6.53333 14.0001C6.53333 11.9722 6.54267 11.7176 6.57829 10.9211C6.61407 10.1265 6.74007 9.58381 6.92518 9.10889C7.11652 8.61796 7.37163 8.20137 7.78697 7.78635C8.20199 7.37116 8.61858 7.11605 9.10967 6.92534C9.58443 6.74069 10.127 6.61485 10.9219 6.57844Z" fill="white"/>
<path fill-rule="evenodd" clip-rule="evenodd" d="M13.3312 7.87882C13.4613 7.87862 13.6012 7.87868 13.7522 7.87875L14.0011 7.87882C15.9947 7.87882 16.231 7.88598 17.0182 7.92175C17.7463 7.95504 18.1414 8.07669 18.4046 8.17889C18.753 8.31422 19.0014 8.476 19.2626 8.73734C19.524 8.99868 19.6857 9.24757 19.8214 9.59602C19.9236 9.85891 20.0454 10.254 20.0785 10.982C20.1143 11.7691 20.1221 12.0056 20.1221 13.9983C20.1221 15.991 20.1143 16.2274 20.0785 17.0145C20.0452 17.7425 19.9236 18.1377 19.8214 18.4006C19.6861 18.749 19.524 18.9971 19.2626 19.2583C19.0013 19.5196 18.7532 19.6814 18.4046 19.8167C18.1417 19.9194 17.7463 20.0407 17.0182 20.074C16.2311 20.1098 15.9947 20.1176 14.0011 20.1176C12.0073 20.1176 11.771 20.1098 10.9839 20.074C10.2559 20.0404 9.86075 19.9188 9.59739 19.8166C9.24894 19.6813 9.00005 19.5195 8.73871 19.2581C8.47738 18.9968 8.3156 18.7485 8.17995 18.3999C8.07775 18.137 7.95595 17.7419 7.92282 17.0139C7.88704 16.2268 7.87988 15.9903 7.87988 13.9964C7.87988 12.0025 7.88704 11.7673 7.92282 10.9802C7.95611 10.2522 8.07775 9.85704 8.17995 9.59384C8.31529 9.24539 8.47738 8.9965 8.73871 8.73516C9.00005 8.47383 9.24894 8.31205 9.59739 8.1764C9.86059 8.07373 10.2559 7.9524 10.9839 7.91895C11.6727 7.88784 11.9396 7.87851 13.3312 7.87695V7.87882ZM17.9867 9.11861C17.4921 9.11861 17.0907 9.51948 17.0907 10.0143C17.0907 10.509 17.4921 10.9103 17.9867 10.9103C18.4814 10.9103 18.8828 10.509 18.8828 10.0143C18.8828 9.51964 18.4814 9.1183 17.9867 9.1183V9.11861ZM10.1666 14C10.1666 11.8824 11.8834 10.1656 14.0009 10.1655C16.1185 10.1655 17.8349 11.8824 17.8349 14C17.8349 16.1176 16.1187 17.8337 14.0011 17.8337C11.8835 17.8337 10.1666 16.1176 10.1666 14Z" fill="white"/>
<path d="M14.0006 11.5112C15.3751 11.5112 16.4895 12.6255 16.4895 14.0001C16.4895 15.3746 15.3751 16.4891 14.0006 16.4891C12.626 16.4891 11.5117 15.3746 11.5117 14.0001C11.5117 12.6255 12.626 11.5112 14.0006 11.5112Z" fill="white"/>
</svg>
