<svg width="24" height="25" viewBox="0 0 24 25" fill="none" xmlns="http://www.w3.org/2000/svg">
<path d="M16.3799 23.25H3.23993C2.28993 23.25 1.40993 22.81 0.839932 22.04C0.259932 21.26 0.0899403 20.28 0.37994 19.35L4.58993 5.81995C4.96993 4.55995 6.12995 3.69995 7.44995 3.69995H19.7499C20.9599 3.69995 22.0499 4.42004 22.5099 5.54004C22.7599 6.12004 22.8099 6.78005 22.6599 7.43005L19.2899 20.96C18.9699 22.31 17.7699 23.25 16.3799 23.25ZM7.45993 5.20996C6.80993 5.20996 6.21993 5.64002 6.02993 6.27002L1.81994 19.8C1.67994 20.27 1.75993 20.76 2.05993 21.16C2.33993 21.54 2.77994 21.76 3.24994 21.76H16.3899C17.08 21.76 17.6799 21.29 17.8399 20.62L21.2099 7.07996C21.2899 6.74996 21.2699 6.42 21.1399 6.13C20.9 5.56 20.3699 5.19995 19.7599 5.19995H7.45993V5.20996Z" fill="#253745"/>
<path d="M20.78 23.25H16C15.59 23.25 15.25 22.91 15.25 22.5C15.25 22.09 15.59 21.75 16 21.75H20.78C21.19 21.75 21.57 21.58 21.85 21.28C22.13 20.98 22.27 20.58 22.24 20.17L21.25 6.55002C21.22 6.14002 21.53 5.77997 21.94 5.74997C22.35 5.72997 22.71 6.02991 22.74 6.43991L23.73 20.06C23.79 20.88 23.5 21.7 22.94 22.3C22.39 22.91 21.6 23.25 20.78 23.25Z" fill="#253745"/>
<path d="M9.67977 7.62996C9.61977 7.62996 9.55977 7.61994 9.49977 7.60994C9.09977 7.50994 8.84979 7.1099 8.94979 6.6999L9.98976 2.37996C10.0898 1.97996 10.4898 1.72991 10.8998 1.82991C11.2998 1.92991 11.5498 2.32994 11.4498 2.73994L10.4098 7.06001C10.3298 7.40001 10.0198 7.62996 9.67977 7.62996Z" fill="#253745"/>
<path d="M16.3795 7.63999C16.3295 7.63999 16.2694 7.63997 16.2194 7.61997C15.8194 7.52997 15.5595 7.12995 15.6395 6.72995L16.5794 2.38999C16.6694 1.97999 17.0694 1.73003 17.4694 1.81003C17.8694 1.89003 18.1294 2.29992 18.0494 2.69992L17.1094 7.04001C17.0394 7.40001 16.7295 7.63999 16.3795 7.63999Z" fill="#253745"/>
<path d="M15.7002 13.25H7.7002C7.2902 13.25 6.9502 12.91 6.9502 12.5C6.9502 12.09 7.2902 11.75 7.7002 11.75H15.7002C16.1102 11.75 16.4502 12.09 16.4502 12.5C16.4502 12.91 16.1102 13.25 15.7002 13.25Z" fill="#253745"/>
<path d="M14.7002 17.25H6.7002C6.2902 17.25 5.9502 16.91 5.9502 16.5C5.9502 16.09 6.2902 15.75 6.7002 15.75H14.7002C15.1102 15.75 15.4502 16.09 15.4502 16.5C15.4502 16.91 15.1102 17.25 14.7002 17.25Z" fill="#253745"/>
</svg>
