<svg width="24" height="24" viewBox="0 0 24 24" fill="none" xmlns="http://www.w3.org/2000/svg">
<path d="M15 22.75H9C3.57 22.75 1.25 20.43 1.25 15V9C1.25 3.57 3.57 1.25 9 1.25H15C20.43 1.25 22.75 3.57 22.75 9V15C22.75 20.43 20.43 22.75 15 22.75ZM9 2.75C4.39 2.75 2.75 4.39 2.75 9V15C2.75 19.61 4.39 21.25 9 21.25H15C19.61 21.25 21.25 19.61 21.25 15V9C21.25 4.39 19.61 2.75 15 2.75H9Z" fill="#8EAFCF"/>
<path d="M21.4795 17.86H2.51953C2.10953 17.86 1.76953 17.52 1.76953 17.11C1.76953 16.7 2.10953 16.36 2.51953 16.36H21.4795C21.8895 16.36 22.2295 16.7 22.2295 17.11C22.2295 17.52 21.8995 17.86 21.4795 17.86Z" fill="#8EAFCF"/>
<path d="M21.4795 7.86H2.51953C2.10953 7.86 1.76953 7.52 1.76953 7.11C1.76953 6.7 2.09953 6.36 2.51953 6.36H21.4795C21.8895 6.36 22.2295 6.7 22.2295 7.11C22.2295 7.52 21.8995 7.86 21.4795 7.86Z" fill="#8EAFCF"/>
<path d="M6.96973 22.21C6.55973 22.21 6.21973 21.87 6.21973 21.46V17.11C6.21973 16.7 6.55973 16.36 6.96973 16.36C7.37973 16.36 7.71973 16.7 7.71973 17.11V21.46C7.71973 21.88 7.37973 22.21 6.96973 22.21Z" fill="#8EAFCF"/>
<path d="M12 22.72C11.59 22.72 11.25 22.38 11.25 21.97V17.11C11.25 16.7 11.59 16.36 12 16.36C12.41 16.36 12.75 16.7 12.75 17.11V21.97C12.75 22.38 12.41 22.72 12 22.72Z" fill="#8EAFCF"/>
<path d="M16.9697 22.27C16.5597 22.27 16.2197 21.93 16.2197 21.52V17.11C16.2197 16.7 16.5597 16.36 16.9697 16.36C17.3797 16.36 17.7197 16.7 17.7197 17.11V21.52C17.7197 21.94 17.3797 22.27 16.9697 22.27Z" fill="#8EAFCF"/>
<path d="M6.96973 7.21C6.55973 7.21 6.21973 6.87 6.21973 6.46V2.11C6.21973 1.7 6.55973 1.36 6.96973 1.36C7.37973 1.36 7.71973 1.7 7.71973 2.11V6.46C7.71973 6.88 7.37973 7.21 6.96973 7.21Z" fill="#8EAFCF"/>
<path d="M12 7.72C11.59 7.72 11.25 7.38 11.25 6.97V2.11C11.25 1.7 11.59 1.36 12 1.36C12.41 1.36 12.75 1.7 12.75 2.11V6.97C12.75 7.38 12.41 7.72 12 7.72Z" fill="#8EAFCF"/>
<path d="M12 18.78C11.59 18.78 11.25 18.44 11.25 18.03V7.03C11.25 6.62 11.59 6.28 12 6.28C12.41 6.28 12.75 6.62 12.75 7.03V18.03C12.75 18.44 12.41 18.78 12 18.78Z" fill="#8EAFCF"/>
<path d="M16.9697 7.27C16.5597 7.27 16.2197 6.93 16.2197 6.52V2.11C16.2197 1.7 16.5597 1.36 16.9697 1.36C17.3797 1.36 17.7197 1.7 17.7197 2.11V6.52C17.7197 6.94 17.3797 7.27 16.9697 7.27Z" fill="#8EAFCF"/>
</svg>
