<svg width="25" height="27" viewBox="0 0 25 27" fill="none" xmlns="http://www.w3.org/2000/svg">
<path d="M11.9788 24.0896C6.09342 24.0896 1.30176 19.0935 1.30176 12.9569C1.30176 6.82042 6.09342 1.82431 11.9788 1.82431C17.8643 1.82431 22.6559 6.82042 22.6559 12.9569C22.6559 19.0935 17.8643 24.0896 11.9788 24.0896ZM11.9788 3.45348C6.94759 3.45348 2.86426 7.72189 2.86426 12.9569C2.86426 18.192 6.94759 22.4604 11.9788 22.4604C17.0101 22.4604 21.0934 18.192 21.0934 12.9569C21.0934 7.72189 17.0101 3.45348 11.9788 3.45348Z" fill="#587897"/>
<path d="M22.9167 25.1757C22.7187 25.1757 22.5208 25.0997 22.3646 24.9367L20.2812 22.7645C19.9792 22.4496 19.9792 21.9282 20.2812 21.6132C20.5833 21.2983 21.0833 21.2983 21.3854 21.6132L23.4688 23.7855C23.7708 24.1004 23.7708 24.6218 23.4688 24.9367C23.3125 25.0997 23.1146 25.1757 22.9167 25.1757Z" fill="#587897"/>
</svg>
