<svg width="52" height="52" viewBox="0 0 52 52" fill="none" xmlns="http://www.w3.org/2000/svg">
<path fill-rule="evenodd" clip-rule="evenodd" d="M0 26C0 11.6406 11.6406 0 26 0C40.3594 0 52 11.6406 52 26C52 40.3594 40.3594 52 26 52C11.6406 52 0 40.3594 0 26ZM25.9625 19.0898C28.0751 19.0898 29.5001 20.0036 30.3126 20.7673L33.4878 17.6627C31.5377 15.8475 29.0001 14.7333 25.9625 14.7333C21.5623 14.7333 17.7622 17.2621 15.9121 20.9425C15.1496 22.4698 14.7121 24.1848 14.7121 26C14.7121 27.8152 15.1496 29.5302 15.9121 31.0575L19.5621 28.2284L15.9246 31.0575C17.7747 34.7379 21.5623 37.2667 25.9625 37.2667C29.0001 37.2667 31.5502 36.2652 33.4128 34.5376C35.5378 32.5722 36.7629 29.6804 36.7629 26.2504C36.7629 25.324 36.6879 24.648 36.5254 23.947H25.9625V28.1281H32.1627C32.0377 29.1672 31.3627 30.732 29.8626 31.7836C28.9126 32.447 27.6375 32.9102 25.9625 32.9102C22.9874 32.9102 20.4623 30.9448 19.5622 28.2283C19.3247 27.5273 19.1872 26.7761 19.1872 26C19.1872 25.2239 19.3247 24.4727 19.5497 23.7717C20.4623 21.0552 22.9874 19.0898 25.9625 19.0898Z" fill="#587897"/>
</svg>
