<svg width="51" height="52" viewBox="0 0 51 52" fill="none" xmlns="http://www.w3.org/2000/svg">
<path fill-rule="evenodd" clip-rule="evenodd" d="M25.5 0C11.4167 0 0 11.6406 0 26C0 40.3594 11.4167 52 25.5 52C39.5833 52 51 40.3594 51 26C51 11.6406 39.5833 0 25.5 0ZM10.625 25.957C10.625 17.6178 17.2978 10.8333 25.4998 10.8333C33.7018 10.8333 40.3747 17.6178 40.3747 25.957C40.3747 27.1384 40.278 28.0947 40.0613 29.0547L40.0581 29.0706C40.0576 29.0734 39.9501 29.5159 39.8907 29.709C39.5231 30.9044 38.8575 31.9001 37.9658 32.5883C37.101 33.2558 36.0288 33.6235 34.9467 33.6235C34.813 33.6235 34.6784 33.618 34.5466 33.6072C33.0099 33.4818 31.6588 32.6597 30.8304 31.3487C29.4054 32.8055 27.5149 33.6069 25.4998 33.6069C21.3511 33.6069 17.9758 30.1752 17.9758 25.957C17.9758 21.7388 21.3511 18.3072 25.4998 18.3072C29.6485 18.3072 33.0237 21.7388 33.0237 25.957V28.423C33.03 29.8618 33.9796 30.45 34.7909 30.5165C35.5981 30.5799 36.6724 30.1018 37.0466 28.5416C37.2312 27.6859 37.325 26.8161 37.325 25.957C37.325 19.3274 32.0202 13.934 25.4998 13.934C18.9794 13.934 13.6747 19.3274 13.6747 25.957C13.6747 32.5865 18.9794 37.9801 25.4998 37.9801C27.7695 37.9801 29.9769 37.321 31.8834 36.074L31.9176 36.0516L33.9215 38.4204L33.8785 38.4503C31.4021 40.1712 28.5047 41.0808 25.4998 41.0808C17.2978 41.0808 10.625 34.2963 10.625 25.957Z" fill="#587897"/>
<path fill-rule="evenodd" clip-rule="evenodd" d="M29.9742 25.957C29.9742 28.4654 27.967 30.5062 25.4999 30.5062C23.0327 30.5062 21.0256 28.4654 21.0256 25.957C21.0256 23.4486 23.0327 21.4079 25.4999 21.4079C27.967 21.4079 29.9742 23.4486 29.9742 25.957Z" fill="#587897"/>
</svg>
