<svg width="28" height="28" viewBox="0 0 28 28" fill="none" xmlns="http://www.w3.org/2000/svg">
<path fill-rule="evenodd" clip-rule="evenodd" d="M14 0C6.26801 0 0 6.26801 0 14C0 21.732 6.26801 28 14 28C21.732 28 28 21.732 28 14C28 6.26801 21.732 0 14 0ZM10.9219 6.57844C11.7184 6.5422 11.9729 6.53333 14.0007 6.53333H13.9984C16.0268 6.53333 16.2804 6.5422 17.0768 6.57844C17.8717 6.61485 18.4146 6.74069 18.8906 6.92534C19.3822 7.11589 19.7975 7.37101 20.2129 7.78635C20.6282 8.20137 20.8833 8.61796 21.0747 9.10905C21.2582 9.58381 21.3842 10.1264 21.4216 10.9213C21.4573 11.7177 21.4667 11.9722 21.4667 14.0001C21.4667 16.0279 21.4573 16.2818 21.4216 17.0782C21.3842 17.8728 21.2582 18.4156 21.0747 18.8905C20.8833 19.3814 20.6282 19.798 20.2129 20.213C19.798 20.6284 19.382 20.8841 18.8911 21.0748C18.416 21.2595 17.8728 21.3853 17.0779 21.4217C16.2815 21.458 16.0278 21.4668 13.9998 21.4668C11.9721 21.4668 11.7177 21.458 10.9213 21.4217C10.1265 21.3853 9.58381 21.2595 9.10874 21.0748C8.61796 20.8841 8.20137 20.6284 7.7865 20.213C7.37132 19.798 7.11621 19.3814 6.92534 18.8903C6.74085 18.4156 6.615 17.873 6.57844 17.0781C6.54236 16.2816 6.53333 16.0279 6.53333 14.0001C6.53333 11.9722 6.54267 11.7176 6.57829 10.9211C6.61407 10.1265 6.74007 9.58381 6.92518 9.10889C7.11652 8.61796 7.37163 8.20137 7.78697 7.78635C8.20199 7.37116 8.61858 7.11605 9.10967 6.92534C9.58443 6.74069 10.127 6.61485 10.9219 6.57844Z" fill="white"/>
<path fill-rule="evenodd" clip-rule="evenodd" d="M13.3309 7.87882C13.4609 7.87862 13.6008 7.87868 13.7518 7.87875L14.0007 7.87882C15.9943 7.87882 16.2306 7.88598 17.0179 7.92175C17.7459 7.95504 18.141 8.07669 18.4042 8.17889C18.7527 8.31422 19.0011 8.476 19.2623 8.73734C19.5236 8.99868 19.6854 9.24757 19.821 9.59602C19.9232 9.85891 20.045 10.254 20.0782 10.982C20.1139 11.7691 20.1217 12.0056 20.1217 13.9983C20.1217 15.991 20.1139 16.2274 20.0782 17.0145C20.0449 17.7425 19.9232 18.1377 19.821 18.4006C19.6857 18.749 19.5236 18.9971 19.2623 19.2583C19.0009 19.5196 18.7528 19.6814 18.4042 19.8167C18.1413 19.9194 17.7459 20.0407 17.0179 20.074C16.2308 20.1098 15.9943 20.1176 14.0007 20.1176C12.0069 20.1176 11.7706 20.1098 10.9835 20.074C10.2555 20.0404 9.86038 19.9188 9.59702 19.8166C9.24858 19.6813 8.99968 19.5195 8.73835 19.2581C8.47701 18.9968 8.31523 18.7485 8.17959 18.3999C8.07739 18.137 7.95558 17.7419 7.92245 17.0139C7.88667 16.2268 7.87952 15.9903 7.87952 13.9964C7.87952 12.0025 7.88667 11.7673 7.92245 10.9802C7.95574 10.2522 8.07739 9.85704 8.17959 9.59384C8.31492 9.24539 8.47701 8.9965 8.73835 8.73516C8.99968 8.47383 9.24858 8.31205 9.59702 8.1764C9.86023 8.07373 10.2555 7.9524 10.9835 7.91895C11.6723 7.88784 11.9392 7.87851 13.3309 7.87695V7.87882ZM17.9864 9.11861C17.4917 9.11861 17.0904 9.51948 17.0904 10.0143C17.0904 10.509 17.4917 10.9103 17.9864 10.9103C18.481 10.9103 18.8824 10.509 18.8824 10.0143C18.8824 9.51964 18.481 9.1183 17.9864 9.1183V9.11861ZM10.1662 14C10.1662 11.8824 11.883 10.1656 14.0005 10.1655C16.1181 10.1655 17.8346 11.8824 17.8346 14C17.8346 16.1176 16.1183 17.8337 14.0007 17.8337C11.8831 17.8337 10.1662 16.1176 10.1662 14Z" fill="white"/>
<path d="M14.0008 11.5107C15.3753 11.5107 16.4897 12.625 16.4897 13.9997C16.4897 15.3742 15.3753 16.4886 14.0008 16.4886C12.6261 16.4886 11.5118 15.3742 11.5118 13.9997C11.5118 12.625 12.6261 11.5107 14.0008 11.5107Z" fill="white"/>
</svg>
