<svg width="27" height="27" viewBox="0 0 27 27" fill="none" xmlns="http://www.w3.org/2000/svg">
<path d="M12.5489 2.92705C12.8483 2.00574 14.1517 2.00574 14.4511 2.92705L16.3064 8.63729C16.4403 9.04931 16.8243 9.32827 17.2575 9.32827H23.2616C24.2303 9.32827 24.6331 10.5679 23.8494 11.1373L18.9919 14.6664C18.6415 14.9211 18.4948 15.3724 18.6287 15.7844L20.484 21.4947C20.7834 22.416 19.7289 23.1821 18.9452 22.6127L14.0878 19.0836C13.7373 18.8289 13.2627 18.8289 12.9122 19.0836L8.0548 22.6127C7.27108 23.1821 6.2166 22.416 6.51596 21.4947L8.37132 15.7844C8.5052 15.3724 8.35854 14.9211 8.00805 14.6664L3.15064 11.1373C2.36692 10.5679 2.7697 9.32827 3.73842 9.32827H9.74252C10.1757 9.32827 10.5597 9.04931 10.6936 8.63729L12.5489 2.92705Z" fill="#0019FF"/>
</svg>
