<svg width="304" height="86" viewBox="0 0 304 86" fill="none" xmlns="http://www.w3.org/2000/svg">
<path d="M0 58.0118C1.62725 62.0828 8.52088 70.0213 17.7518 69.2071C29.2905 68.1893 38.1207 53.8429 41.7168 43.7633C49.1605 22.8994 59.1127 17.6361 67.9886 38.5C76.8645 59.3639 76.7766 64.6272 91.4219 73.787C106.067 82.9467 126.926 48.852 139.352 58.0118C151.778 67.1715 151.736 86 161.098 86C168.642 86 169.53 58.0118 192.607 58.0118C215.685 58.0118 223.673 0 235.655 0C245.863 0 255.182 71.2426 272.047 71.2426C286.248 71.2426 283.881 48.1736 304 49.3609" stroke="white" stroke-width="5"/>
</svg>
