<svg width="304" height="87" viewBox="0 0 304 87" fill="none" xmlns="http://www.w3.org/2000/svg">
<path d="M0 58.0118C1.62725 62.0828 4.96242 72.4324 11.5 79C21.2482 88.7929 41.9039 89.0796 45.5 79C52.9437 58.1361 45.2752 92.4897 67 86C90.4333 79 95.4372 85.3539 111.5 79C123.078 74.4201 126.926 48.852 139.352 58.0118C151.778 67.1715 151.736 86 161.098 86C168.642 86 169.53 58.0118 192.607 58.0118C215.685 58.0118 223.673 0 235.655 0C245.863 0 255.182 71.2426 272.047 71.2426C286.248 71.2426 283.881 48.1736 304 49.3609" stroke="white" stroke-width="5"/>
</svg>
