<svg width="23" height="22" viewBox="0 0 23 22" fill="none" xmlns="http://www.w3.org/2000/svg">
<path d="M6.83105 13.0012C7.60285 14.7579 9.51614 16.0001 11.5261 16.0001C13.5276 16.0001 15.4372 14.7547 16.2156 13.0056" stroke="#14202D" stroke-width="1.5" stroke-linecap="round"/>
<path fill-rule="evenodd" clip-rule="evenodd" d="M8.52857 9C9.08045 9 9.52784 8.55228 9.52784 8C9.52784 7.44772 9.08045 7 8.52857 7C7.97669 7 7.5293 7.44772 7.5293 8C7.5293 8.55228 7.97669 9 8.52857 9Z" fill="#14202D"/>
<path fill-rule="evenodd" clip-rule="evenodd" d="M14.5237 9C15.0756 9 15.523 8.55228 15.523 8C15.523 7.44772 15.0756 7 14.5237 7C13.9718 7 13.5244 7.44772 13.5244 8C13.5244 8.55228 13.9718 9 14.5237 9Z" fill="#14202D"/>
<path fill-rule="evenodd" clip-rule="evenodd" d="M11.5259 21C17.0447 21 21.5186 16.5228 21.5186 11C21.5186 5.47715 17.0447 1 11.5259 1C6.00709 1 1.5332 5.47715 1.5332 11C1.5332 16.5228 6.00709 21 11.5259 21Z" stroke="#14202D" stroke-width="1.5"/>
</svg>
