<svg width="28" height="28" viewBox="0 0 28 28" fill="none" xmlns="http://www.w3.org/2000/svg">
<path fill-rule="evenodd" clip-rule="evenodd" d="M14 0C6.26801 0 0 6.26801 0 14C0 21.732 6.26801 28 14 28C21.732 28 28 21.732 28 14C28 6.26801 21.732 0 14 0ZM10.9219 6.57844C11.7184 6.5422 11.9729 6.53333 14.0007 6.53333H13.9984C16.0268 6.53333 16.2804 6.5422 17.0768 6.57844C17.8717 6.61485 18.4146 6.74069 18.8906 6.92534C19.3822 7.11589 19.7975 7.37101 20.2129 7.78635C20.6282 8.20137 20.8833 8.61796 21.0747 9.10905C21.2582 9.58381 21.3842 10.1264 21.4216 10.9213C21.4573 11.7177 21.4667 11.9722 21.4667 14.0001C21.4667 16.0279 21.4573 16.2818 21.4216 17.0782C21.3842 17.8728 21.2582 18.4156 21.0747 18.8905C20.8833 19.3814 20.6282 19.798 20.2129 20.213C19.798 20.6284 19.382 20.8841 18.8911 21.0748C18.416 21.2595 17.8728 21.3853 17.0779 21.4217C16.2815 21.458 16.0278 21.4668 13.9998 21.4668C11.9721 21.4668 11.7177 21.458 10.9213 21.4217C10.1265 21.3853 9.58381 21.2595 9.10874 21.0748C8.61796 20.8841 8.20137 20.6284 7.7865 20.213C7.37132 19.798 7.11621 19.3814 6.92534 18.8903C6.74085 18.4156 6.615 17.873 6.57844 17.0781C6.54236 16.2816 6.53333 16.0279 6.53333 14.0001C6.53333 11.9722 6.54267 11.7176 6.57829 10.9211C6.61407 10.1265 6.74007 9.58381 6.92518 9.10889C7.11652 8.61796 7.37163 8.20137 7.78697 7.78635C8.20199 7.37116 8.61858 7.11605 9.10967 6.92534C9.58443 6.74069 10.127 6.61485 10.9219 6.57844Z" fill="white"/>
<path fill-rule="evenodd" clip-rule="evenodd" d="M13.3312 7.87894C13.4613 7.87874 13.6012 7.8788 13.7522 7.87887L14.0011 7.87894C15.9947 7.87894 16.231 7.8861 17.0182 7.92188C17.7463 7.95516 18.1414 8.07681 18.4046 8.17901C18.753 8.31435 19.0014 8.47613 19.2626 8.73746C19.524 8.9988 19.6857 9.24769 19.8214 9.59614C19.9236 9.85903 20.0454 10.2541 20.0785 10.9822C20.1143 11.7693 20.1221 12.0057 20.1221 13.9984C20.1221 15.9911 20.1143 16.2275 20.0785 17.0147C20.0452 17.7427 19.9236 18.1378 19.8214 18.4007C19.6861 18.7491 19.524 18.9972 19.2626 19.2584C19.0013 19.5198 18.7532 19.6815 18.4046 19.8169C18.1417 19.9195 17.7463 20.0409 17.0182 20.0742C16.2311 20.1099 15.9947 20.1177 14.0011 20.1177C12.0073 20.1177 11.771 20.1099 10.9839 20.0742C10.2559 20.0406 9.86075 19.9189 9.59739 19.8167C9.24894 19.6814 9.00005 19.5196 8.73871 19.2583C8.47738 18.9969 8.3156 18.7487 8.17995 18.4001C8.07775 18.1372 7.95595 17.742 7.92282 17.014C7.88704 16.2269 7.87988 15.9905 7.87988 13.9965C7.87988 12.0026 7.88704 11.7674 7.92282 10.9803C7.95611 10.2523 8.07775 9.85716 8.17995 9.59396C8.31529 9.24551 8.47738 8.99662 8.73871 8.73528C9.00005 8.47395 9.24894 8.31217 9.59739 8.17652C9.86059 8.07386 10.2559 7.95252 10.9839 7.91908C11.6727 7.88796 11.9396 7.87863 13.3312 7.87708V7.87894ZM17.9867 9.11873C17.4921 9.11873 17.0907 9.5196 17.0907 10.0144C17.0907 10.5091 17.4921 10.9104 17.9867 10.9104C18.4814 10.9104 18.8828 10.5091 18.8828 10.0144C18.8828 9.51976 18.4814 9.11842 17.9867 9.11842V9.11873ZM10.1666 14.0001C10.1666 11.8826 11.8834 10.1657 14.0009 10.1656C16.1185 10.1656 17.8349 11.8825 17.8349 14.0001C17.8349 16.1177 16.1187 17.8338 14.0011 17.8338C11.8835 17.8338 10.1666 16.1177 10.1666 14.0001Z" fill="white"/>
<path d="M14.0006 11.5111C15.3751 11.5111 16.4895 12.6254 16.4895 14C16.4895 15.3745 15.3751 16.4889 14.0006 16.4889C12.626 16.4889 11.5117 15.3745 11.5117 14C11.5117 12.6254 12.626 11.5111 14.0006 11.5111Z" fill="white"/>
</svg>
