<svg width="26" height="20" viewBox="0 0 26 20" fill="none" xmlns="http://www.w3.org/2000/svg">
<path d="M9.70312 2.0245H22.5725" stroke="#14202D" stroke-width="1.5" stroke-linecap="round"/>
<path d="M9.70312 9.941H22.5725" stroke="#14202D" stroke-width="1.5" stroke-linecap="round"/>
<path d="M9.70312 17.858H22.5725" stroke="#14202D" stroke-width="1.5" stroke-linecap="round"/>
<path fill-rule="evenodd" clip-rule="evenodd" d="M3.26883 3.60783C4.15728 3.60783 4.8775 2.89895 4.8775 2.0245C4.8775 1.15004 4.15728 0.441162 3.26883 0.441162C2.38038 0.441162 1.66016 1.15004 1.66016 2.0245C1.66016 2.89895 2.38038 3.60783 3.26883 3.60783Z" fill="#14202D"/>
<path fill-rule="evenodd" clip-rule="evenodd" d="M3.26883 11.5243C4.15728 11.5243 4.8775 10.8154 4.8775 9.941C4.8775 9.06655 4.15728 8.35767 3.26883 8.35767C2.38038 8.35767 1.66016 9.06655 1.66016 9.941C1.66016 10.8154 2.38038 11.5243 3.26883 11.5243Z" fill="#14202D"/>
<path fill-rule="evenodd" clip-rule="evenodd" d="M3.26883 19.4413C4.15728 19.4413 4.8775 18.7324 4.8775 17.858C4.8775 16.9835 4.15728 16.2747 3.26883 16.2747C2.38038 16.2747 1.66016 16.9835 1.66016 17.858C1.66016 18.7324 2.38038 19.4413 3.26883 19.4413Z" fill="#14202D"/>
</svg>
