<svg width="25" height="21" viewBox="0 0 25 21" fill="none" xmlns="http://www.w3.org/2000/svg">
<path d="M9.28223 2.5245H22.1516" stroke="#14202D" stroke-width="1.5" stroke-linecap="round"/>
<path d="M9.28223 10.441H22.1516" stroke="#14202D" stroke-width="1.5" stroke-linecap="round"/>
<path d="M9.28223 18.358H22.1516" stroke="#14202D" stroke-width="1.5" stroke-linecap="round"/>
<path fill-rule="evenodd" clip-rule="evenodd" d="M2.84793 4.10783C3.73638 4.10783 4.4566 3.39895 4.4566 2.5245C4.4566 1.65004 3.73638 0.941162 2.84793 0.941162C1.95949 0.941162 1.23926 1.65004 1.23926 2.5245C1.23926 3.39895 1.95949 4.10783 2.84793 4.10783Z" fill="#14202D"/>
<path fill-rule="evenodd" clip-rule="evenodd" d="M2.84793 12.0243C3.73638 12.0243 4.4566 11.3154 4.4566 10.441C4.4566 9.56655 3.73638 8.85767 2.84793 8.85767C1.95949 8.85767 1.23926 9.56655 1.23926 10.441C1.23926 11.3154 1.95949 12.0243 2.84793 12.0243Z" fill="#14202D"/>
<path fill-rule="evenodd" clip-rule="evenodd" d="M2.84793 19.9413C3.73638 19.9413 4.4566 19.2324 4.4566 18.358C4.4566 17.4835 3.73638 16.7747 2.84793 16.7747C1.95949 16.7747 1.23926 17.4835 1.23926 18.358C1.23926 19.2324 1.95949 19.9413 2.84793 19.9413Z" fill="#14202D"/>
</svg>
