<svg width="25" height="24" viewBox="0 0 25 24" fill="none" xmlns="http://www.w3.org/2000/svg">
<path d="M19.08 6.68C18.6703 6.68 18.3305 6.34 18.3305 5.93V4.42C18.3305 3.82 17.8409 3.32 17.2313 3.32H4.31077C3.7112 3.32 3.21157 3.81 3.21157 4.42V5.93C3.21157 6.34 2.87182 6.68 2.46212 6.68C2.05242 6.68 1.72266 6.34 1.72266 5.93V4.42C1.72266 2.99 2.8918 1.82 4.32076 1.82H17.2313C18.6603 1.82 19.8294 2.98 19.8294 4.42V5.93C19.8294 6.34 19.4897 6.68 19.08 6.68Z" fill="#14202D"/>
<path d="M10.7758 18.85C10.3661 18.85 10.0264 18.51 10.0264 18.1V3.32C10.0264 2.91 10.3661 2.57 10.7758 2.57C11.1855 2.57 11.5253 2.91 11.5253 3.32V18.1C11.5253 18.52 11.1855 18.85 10.7758 18.85Z" fill="#14202D"/>
<path d="M12.9543 18.85H7.37836C6.96866 18.85 6.62891 18.51 6.62891 18.1C6.62891 17.69 6.96866 17.35 7.37836 17.35H12.9543C13.364 17.35 13.7037 17.69 13.7037 18.1C13.7037 18.51 13.364 18.85 12.9543 18.85Z" fill="#14202D"/>
<path d="M22.4777 13.2C22.068 13.2 21.7282 12.86 21.7282 12.45V11.65C21.7282 11.34 21.4684 11.08 21.1586 11.08H14.1537C13.744 11.08 13.4043 10.74 13.4043 10.33C13.4043 9.92 13.744 9.58 14.1537 9.58H21.1586C22.2978 9.58 23.2271 10.51 23.2271 11.65V12.45C23.2271 12.87 22.8974 13.2 22.4777 13.2Z" fill="#14202D"/>
<path d="M16.5512 22.18C16.1415 22.18 15.8018 21.84 15.8018 21.43V10.87C15.8018 10.46 16.1415 10.12 16.5512 10.12C16.9609 10.12 17.3007 10.46 17.3007 10.87V21.43C17.3007 21.84 16.9609 22.18 16.5512 22.18Z" fill="#14202D"/>
<path d="M18.6904 22.18H14.4135C14.0038 22.18 13.6641 21.84 13.6641 21.43C13.6641 21.02 14.0038 20.68 14.4135 20.68H18.6904C19.1001 20.68 19.4398 21.02 19.4398 21.43C19.4398 21.84 19.1001 22.18 18.6904 22.18Z" fill="#14202D"/>
</svg>
