<svg width="25" height="24" viewBox="0 0 25 24" fill="none" xmlns="http://www.w3.org/2000/svg">
<path d="M15.2566 22.75H9.26094C3.83491 22.75 1.5166 20.43 1.5166 15V9C1.5166 3.57 3.83491 1.25 9.26094 1.25H15.2566C20.6826 1.25 23.0009 3.57 23.0009 9V15C23.0009 20.43 20.6826 22.75 15.2566 22.75ZM9.26094 2.75C4.65431 2.75 3.01551 4.39 3.01551 9V15C3.01551 19.61 4.65431 21.25 9.26094 21.25H15.2566C19.8632 21.25 21.502 19.61 21.502 15V9C21.502 4.39 19.8632 2.75 15.2566 2.75H9.26094Z" fill="#14202D"/>
<path d="M9.26069 10.75C7.7418 10.75 6.5127 9.52 6.5127 8C6.5127 6.48 7.7418 5.25 9.26069 5.25C10.7796 5.25 12.0087 6.48 12.0087 8C12.0087 9.52 10.7796 10.75 9.26069 10.75ZM9.26069 6.75C8.57119 6.75 8.0116 7.31 8.0116 8C8.0116 8.69 8.57119 9.25 9.26069 9.25C9.95018 9.25 10.5098 8.69 10.5098 8C10.5098 7.31 9.95018 6.75 9.26069 6.75Z" fill="#14202D"/>
<path d="M2.93583 19.7C2.696 19.7 2.45618 19.58 2.31628 19.37C2.08645 19.03 2.17638 18.56 2.52613 18.33L7.45253 15.02C8.53174 14.29 10.0207 14.38 10.9999 15.21L11.3297 15.5C11.8293 15.93 12.6787 15.93 13.1684 15.5L17.3253 11.93C18.3845 11.02 20.0533 11.02 21.1225 11.93L22.7514 13.33C23.0611 13.6 23.1011 14.07 22.8313 14.39C22.5615 14.7 22.0918 14.74 21.7721 14.47L20.1433 13.07C19.6436 12.64 18.7942 12.64 18.2946 13.07L14.1376 16.64C13.0784 17.55 11.4096 17.55 10.3404 16.64L10.0107 16.35C9.55099 15.96 8.79155 15.92 8.28192 16.27L3.35552 19.58C3.22562 19.66 3.07573 19.7 2.93583 19.7Z" fill="#14202D"/>
</svg>
