<svg width="25" height="24" viewBox="0 0 25 24" fill="none" xmlns="http://www.w3.org/2000/svg">
<path d="M12.625 12.75H5.51019C5.10049 12.75 4.76074 12.41 4.76074 12V4.5C4.76074 2.98 5.98984 1.75 7.50873 1.75H12.625C15.6528 1.75 18.121 4.22 18.121 7.25C18.121 10.28 15.6528 12.75 12.625 12.75ZM6.24965 11.25H12.625C14.8334 11.25 16.6221 9.46 16.6221 7.25C16.6221 5.04 14.8334 3.25 12.625 3.25H7.50873C6.81924 3.25 6.25965 3.81 6.25965 4.5V11.25H6.24965Z" fill="#14202D"/>
<path d="M15.0033 22.25H7.50873C5.98984 22.25 4.76074 21.02 4.76074 19.5V12C4.76074 11.59 5.10049 11.25 5.51019 11.25H15.0033C18.031 11.25 20.4992 13.72 20.4992 16.75C20.4992 19.78 18.031 22.25 15.0033 22.25ZM6.24965 12.75V19.5C6.24965 20.19 6.80925 20.75 7.49874 20.75H14.9933C17.2017 20.75 18.9903 18.96 18.9903 16.75C18.9903 14.54 17.2017 12.75 14.9933 12.75H6.24965Z" fill="#14202D"/>
</svg>
