<svg width="28" height="27" viewBox="0 0 28 27" fill="none" xmlns="http://www.w3.org/2000/svg">
<path d="M14.693 23.4675H7.86921C3.87838 23.4675 2.46191 20.6663 2.46191 18.0562V8.94375C2.46191 5.05125 3.97956 3.5325 7.86921 3.5325H14.693C18.5826 3.5325 20.1003 5.05125 20.1003 8.94375V18.0562C20.1003 21.9487 18.5826 23.4675 14.693 23.4675ZM7.86921 5.2425C4.93511 5.2425 4.17067 6.0075 4.17067 8.94375V18.0562C4.17067 19.44 4.65406 21.7575 7.86921 21.7575H14.693C17.6271 21.7575 18.3915 20.9925 18.3915 18.0562V8.94375C18.3915 6.0075 17.6271 5.2425 14.693 5.2425H7.86921Z" fill="#14202D"/>
<path d="M23.5745 20.3738C23.0911 20.3738 22.4728 20.2163 21.7646 19.7213L18.7631 17.6175C18.5382 17.46 18.4033 17.2013 18.4033 16.92V10.08C18.4033 9.79875 18.5382 9.54 18.7631 9.3825L21.7646 7.27875C23.1024 6.345 24.0804 6.615 24.5413 6.85125C25.0022 7.09875 25.7892 7.74 25.7892 9.37125V17.6175C25.7892 19.2488 25.0022 19.9013 24.5413 20.1375C24.3277 20.2613 23.9905 20.3738 23.5745 20.3738ZM20.1008 16.47L22.7427 18.315C23.2485 18.6638 23.6083 18.6975 23.7544 18.6188C23.9118 18.54 24.0804 18.225 24.0804 17.6175V9.3825C24.0804 8.76375 23.9006 8.46 23.7544 8.38125C23.6083 8.3025 23.2485 8.33625 22.7427 8.685L20.1008 10.53V16.47Z" fill="#14202D"/>
<path d="M13.1417 13.2188C11.7477 13.2188 10.6123 12.0825 10.6123 10.6875C10.6123 9.2925 11.7477 8.15625 13.1417 8.15625C14.5357 8.15625 15.6711 9.2925 15.6711 10.6875C15.6711 12.0825 14.5357 13.2188 13.1417 13.2188ZM13.1417 9.84375C12.6808 9.84375 12.2986 10.2262 12.2986 10.6875C12.2986 11.1488 12.6808 11.5312 13.1417 11.5312C13.6026 11.5312 13.9848 11.1488 13.9848 10.6875C13.9848 10.2262 13.6026 9.84375 13.1417 9.84375Z" fill="#14202D"/>
</svg>
