<svg width="25" height="24" viewBox="0 0 25 24" fill="none" xmlns="http://www.w3.org/2000/svg">
<path d="M19.4517 3.75H10.1984C9.78874 3.75 9.45898 3.41 9.45898 3C9.45898 2.59 9.79874 2.25 10.2084 2.25H19.4517C19.8614 2.25 20.2011 2.59 20.2011 3C20.2011 3.41 19.8614 3.75 19.4517 3.75Z" fill="#14202D"/>
<path d="M14.9558 21.75H5.70258C5.29288 21.75 4.95312 21.41 4.95312 21C4.95312 20.59 5.29288 20.25 5.70258 20.25H14.9458C15.3555 20.25 15.6953 20.59 15.6953 21C15.6953 21.41 15.3655 21.75 14.9558 21.75Z" fill="#14202D"/>
<path d="M10.3286 21.75C10.2687 21.75 10.2087 21.74 10.1488 21.73C9.74907 21.63 9.49926 21.22 9.59918 20.82L14.0959 2.82C14.1958 2.42 14.5955 2.17 15.0052 2.27C15.4049 2.37 15.6548 2.78 15.5548 3.18L11.0581 21.18C10.9682 21.52 10.6684 21.75 10.3286 21.75Z" fill="#14202D"/>
</svg>
