<svg width="27" height="26" viewBox="0 0 27 26" fill="none" xmlns="http://www.w3.org/2000/svg">
<path d="M10.0534 23.2917C8.25633 23.2917 6.44849 22.6092 5.07366 21.2333C2.33482 18.4817 2.33482 14.0183 5.07366 11.2775C5.38759 10.9633 5.90721 10.9633 6.22115 11.2775C6.53509 11.5917 6.53509 12.1117 6.22115 12.4258C4.11019 14.5383 4.11019 17.9725 6.22115 20.085C8.33211 22.1975 11.7638 22.1975 13.8747 20.085C14.8923 19.0667 15.4552 17.7017 15.4552 16.25C15.4552 14.8092 14.8923 13.4442 13.8747 12.415C13.5608 12.1008 13.5608 11.5808 13.8747 11.2667C14.1887 10.9525 14.7083 10.9525 15.0222 11.2667C16.3538 12.5992 17.0791 14.365 17.0791 16.25C17.0791 18.135 16.3429 19.9008 15.0222 21.2333C13.6582 22.6092 11.8612 23.2917 10.0534 23.2917Z" fill="#14202D"/>
<path d="M20.9655 15.34C20.7598 15.34 20.5541 15.2642 20.3918 15.1017C20.0778 14.7875 20.0778 14.2675 20.3918 13.9533C22.611 11.7325 22.611 8.125 20.3918 5.915C18.1725 3.69417 14.5677 3.69417 12.3593 5.915C11.2876 6.9875 10.6922 8.4175 10.6922 9.93417C10.6922 11.4508 11.2876 12.8808 12.3593 13.9533C12.6732 14.2675 12.6732 14.7875 12.3593 15.1017C12.0454 15.4158 11.5257 15.4158 11.2118 15.1017C9.83697 13.7258 9.06836 11.8842 9.06836 9.93417C9.06836 7.98417 9.82614 6.1425 11.2118 4.76667C14.0589 1.9175 18.6922 1.9175 21.5501 4.76667C24.3972 7.61583 24.3972 12.2633 21.5501 15.1125C21.3877 15.2642 21.1712 15.34 20.9655 15.34Z" fill="#14202D"/>
</svg>
