<svg width="25" height="25" viewBox="0 0 25 25" fill="none" xmlns="http://www.w3.org/2000/svg">
<path d="M13.5045 17.0209H11.4952C10.6614 17.0209 9.98828 17.694 9.98828 18.5278V22.044H15.0114V18.5278C15.0114 17.694 14.3383 17.0209 13.5045 17.0209Z" stroke="#8EAFCF" stroke-width="1.5" stroke-miterlimit="10" stroke-linejoin="round"/>
<path d="M10.5608 3.27751L3.59868 8.8532C2.81507 9.47607 2.31276 10.7921 2.48354 11.7767L3.8197 19.7735C4.06081 21.2001 5.42711 22.3554 6.87378 22.3554H18.1256C19.5622 22.3554 20.9386 21.1901 21.1797 19.7735L22.5159 11.7767C22.6766 10.7921 22.1743 9.47607 21.4007 8.8532L14.4386 3.28755C13.3637 2.42357 11.6257 2.42357 10.5608 3.27751Z" stroke="#8EAFCF" stroke-width="1.5" stroke-linecap="round" stroke-linejoin="round"/>
</svg>
