<svg width="41" height="624" viewBox="0 0 41 624" fill="none" xmlns="http://www.w3.org/2000/svg">
<circle cx="20.5" cy="20.5" r="19.5" stroke="#8EAFCF" stroke-width="2"/>
<circle cx="20.5" cy="73.5" r="19.5" stroke="#8EAFCF" stroke-width="2"/>
<circle cx="20.5" cy="126.5" r="19.5" stroke="#8EAFCF" stroke-width="2"/>
<circle cx="20.5" cy="179.5" r="19.5" stroke="#8EAFCF" stroke-width="2"/>
<circle cx="20.5" cy="232.5" r="19.5" stroke="#8EAFCF" stroke-width="2"/>
<circle cx="20.5" cy="285.5" r="19.5" stroke="#8EAFCF" stroke-width="2"/>
<circle cx="20.5" cy="338.5" r="19.5" stroke="#8EAFCF" stroke-width="2"/>
<circle cx="20.5" cy="391.5" r="19.5" stroke="#8EAFCF" stroke-width="2"/>
<circle cx="20.5" cy="444.5" r="19.5" stroke="#8EAFCF" stroke-width="2"/>
<circle cx="20.5" cy="497.5" r="19.5" stroke="#8EAFCF" stroke-width="2"/>
<circle cx="20.5" cy="550.5" r="19.5" stroke="#8EAFCF" stroke-width="2"/>
<circle cx="20.5" cy="603.5" r="19.5" stroke="#8EAFCF" stroke-width="2"/>
<path d="M21 40V53.5" stroke="#8EAFCF" stroke-width="2" stroke-linecap="round"/>
<path d="M21 94V106" stroke="#8EAFCF" stroke-width="2" stroke-linecap="round"/>
<path d="M21 147V159" stroke="#8EAFCF" stroke-width="2" stroke-linecap="round"/>
<path d="M21 199V212.5" stroke="#8EAFCF" stroke-width="2" stroke-linecap="round"/>
<path d="M21 252V265.5" stroke="#8EAFCF" stroke-width="1.5" stroke-linecap="round"/>
<path d="M21 305V318.5" stroke="#8EAFCF" stroke-width="2" stroke-linecap="round"/>
<path d="M21 358V371.5" stroke="#8EAFCF" stroke-width="2" stroke-linecap="round"/>
<path d="M21 412V425" stroke="#8EAFCF" stroke-width="2" stroke-linecap="round"/>
<path d="M21 465V478" stroke="#8EAFCF" stroke-width="2" stroke-linecap="round"/>
<path d="M21 518V531" stroke="#8EAFCF" stroke-width="2" stroke-linecap="round"/>
<path d="M21 571V584" stroke="#8EAFCF" stroke-width="2" stroke-linecap="round"/>
</svg>
