<svg width="28" height="29" viewBox="0 0 28 29" fill="none" xmlns="http://www.w3.org/2000/svg">
<path fill-rule="evenodd" clip-rule="evenodd" d="M14 0.851074C6.26801 0.851074 0 7.11909 0 14.8511C0 22.5831 6.26801 28.8511 14 28.8511C21.732 28.8511 28 22.5831 28 14.8511C28 7.11909 21.732 0.851074 14 0.851074ZM10.9219 7.42952C11.7184 7.39327 11.9729 7.38441 14.0007 7.38441H13.9984C16.0268 7.38441 16.2804 7.39327 17.0768 7.42952C17.8717 7.46592 18.4146 7.59177 18.8906 7.77641C19.3822 7.96697 19.7975 8.22208 20.2129 8.63742C20.6282 9.05245 20.8833 9.46903 21.0747 9.96012C21.2582 10.4349 21.3842 10.9775 21.4216 11.7724C21.4573 12.5688 21.4667 12.8233 21.4667 14.8512C21.4667 16.879 21.4573 17.1329 21.4216 17.9293C21.3842 18.7239 21.2582 19.2666 21.0747 19.7416C20.8833 20.2325 20.6282 20.6491 20.2129 21.0641C19.798 21.4794 19.382 21.7352 18.8911 21.9259C18.416 22.1105 17.8728 22.2364 17.0779 22.2728C16.2815 22.309 16.0278 22.3179 13.9998 22.3179C11.9721 22.3179 11.7177 22.309 10.9213 22.2728C10.1265 22.2364 9.58381 22.1105 9.10874 21.9259C8.61796 21.7352 8.20137 21.4794 7.7865 21.0641C7.37132 20.6491 7.11621 20.2325 6.92534 19.7414C6.74085 19.2666 6.615 18.7241 6.57844 17.9292C6.54236 17.1327 6.53333 16.879 6.53333 14.8512C6.53333 12.8233 6.54267 12.5687 6.57829 11.7722C6.61407 10.9776 6.74007 10.4349 6.92518 9.95997C7.11652 9.46903 7.37163 9.05245 7.78697 8.63742C8.20199 8.22224 8.61858 7.96712 9.10967 7.77641C9.58443 7.59177 10.127 7.46592 10.9219 7.42952Z" fill="white"/>
<path fill-rule="evenodd" clip-rule="evenodd" d="M13.3312 8.73002C13.4613 8.72981 13.6012 8.72988 13.7522 8.72994L14.0011 8.73002C15.9947 8.73002 16.231 8.73717 17.0182 8.77295C17.7463 8.80624 18.1414 8.92788 18.4046 9.03009C18.753 9.16542 19.0014 9.3272 19.2626 9.58854C19.524 9.84987 19.6857 10.0988 19.8214 10.4472C19.9236 10.7101 20.0454 11.1052 20.0785 11.8332C20.1143 12.6203 20.1221 12.8568 20.1221 14.8495C20.1221 16.8422 20.1143 17.0786 20.0785 17.8657C20.0452 18.5937 19.9236 18.9889 19.8214 19.2517C19.6861 19.6002 19.524 19.8483 19.2626 20.1095C19.0013 20.3708 18.7532 20.5326 18.4046 20.6679C18.1417 20.7706 17.7463 20.8919 17.0182 20.9252C16.2311 20.961 15.9947 20.9688 14.0011 20.9688C12.0073 20.9688 11.771 20.961 10.9839 20.9252C10.2559 20.8916 9.86075 20.77 9.59739 20.6678C9.24894 20.5324 9.00005 20.3707 8.73871 20.1093C8.47738 19.848 8.3156 19.5997 8.17995 19.2511C8.07775 18.9882 7.95595 18.5931 7.92282 17.8651C7.88704 17.078 7.87988 16.8415 7.87988 14.8476C7.87988 12.8537 7.88704 12.6185 7.92282 11.8314C7.95611 11.1034 8.07775 10.7082 8.17995 10.445C8.31529 10.0966 8.47738 9.84769 8.73871 9.58636C9.00005 9.32502 9.24894 9.16324 9.59739 9.0276C9.86059 8.92493 10.2559 8.80359 10.9839 8.77015C11.6727 8.73904 11.9396 8.72971 13.3312 8.72815V8.73002ZM17.9867 9.96981C17.4921 9.96981 17.0907 10.3707 17.0907 10.8655C17.0907 11.3602 17.4921 11.7615 17.9867 11.7615C18.4814 11.7615 18.8828 11.3602 18.8828 10.8655C18.8828 10.3708 18.4814 9.9695 17.9867 9.9695V9.96981ZM10.1666 14.8512C10.1666 12.7336 11.8834 11.0168 14.0009 11.0167C16.1185 11.0167 17.8349 12.7336 17.8349 14.8512C17.8349 16.9688 16.1187 18.6849 14.0011 18.6849C11.8835 18.6849 10.1666 16.9688 10.1666 14.8512Z" fill="white"/>
<path d="M14.0006 12.3622C15.3751 12.3622 16.4895 13.4764 16.4895 14.8511C16.4895 16.2256 15.3751 17.34 14.0006 17.34C12.626 17.34 11.5117 16.2256 11.5117 14.8511C11.5117 13.4764 12.626 12.3622 14.0006 12.3622Z" fill="white"/>
</svg>
