<svg width="28" height="29" viewBox="0 0 28 29" fill="none" xmlns="http://www.w3.org/2000/svg">
<path fill-rule="evenodd" clip-rule="evenodd" d="M14 0.851074C6.26801 0.851074 0 7.11909 0 14.8511C0 22.5831 6.26801 28.8511 14 28.8511C21.732 28.8511 28 22.5831 28 14.8511C28 7.11909 21.732 0.851074 14 0.851074ZM6.72094 12.4465H9.89365V21.9792H6.72094V12.4465ZM10.1026 9.49765C10.082 8.56298 9.41363 7.85107 8.32827 7.85107C7.24291 7.85107 6.53333 8.56298 6.53333 9.49765C6.53333 10.413 7.22193 11.1454 8.28708 11.1454H8.30736C9.41363 11.1454 10.1026 10.413 10.1026 9.49765ZM17.6827 12.2226C19.7705 12.2226 21.3356 13.5854 21.3356 16.5134L21.3355 21.9792H18.1629V16.8792C18.1629 15.5982 17.7038 14.724 16.5553 14.724C15.6788 14.724 15.1567 15.3133 14.9274 15.8825C14.8435 16.0865 14.8229 16.3707 14.8229 16.6556V21.9794H11.6498C11.6498 21.9794 11.6916 13.3412 11.6498 12.4467H14.8229V13.797C15.244 13.1479 15.9982 12.2226 17.6827 12.2226Z" fill="white"/>
</svg>
