<svg width="28" height="29" viewBox="0 0 28 29" fill="none" xmlns="http://www.w3.org/2000/svg">
<path fill-rule="evenodd" clip-rule="evenodd" d="M0 14.8511C0 22.5831 6.26801 28.8511 14 28.8511C21.732 28.8511 28 22.5831 28 14.8511C28 7.11909 21.732 0.851074 14 0.851074C6.26801 0.851074 0 7.11909 0 14.8511ZM11.4333 21.2677L11.6715 17.6991L11.6713 17.6989L18.1632 11.8405C18.4481 11.5876 18.101 11.4643 17.7228 11.6937L9.71091 16.7483L6.25023 15.6681C5.50288 15.4393 5.49751 14.9257 6.41802 14.5565L19.9035 9.35658C20.5194 9.07695 21.1139 9.50451 20.8788 10.4472L18.5822 21.2696C18.4218 22.0386 17.9572 22.2225 17.3133 21.8673L13.8149 19.2826L12.1333 20.9177C12.128 20.9229 12.1228 20.928 12.1175 20.9331C11.9294 21.1162 11.7738 21.2677 11.4333 21.2677Z" fill="white"/>
</svg>
