<svg width="38" height="38" viewBox="0 0 38 38" fill="none" xmlns="http://www.w3.org/2000/svg">
<path d="M19.031 32.1827C15.4066 32.1827 11.7821 31.6109 8.34435 30.4673C7.03768 30.0191 6.04213 29.1073 5.60657 27.9173C5.15546 26.7273 5.31102 25.4136 6.02657 24.2391L7.81546 21.2873C8.18879 20.6691 8.53102 19.4327 8.53102 18.7064V14.24C8.53102 8.49089 13.2443 3.80817 19.031 3.80817C24.8177 3.80817 29.531 8.49089 29.531 14.24V18.7064C29.531 19.4173 29.8732 20.6691 30.2466 21.3027L32.0199 24.2391C32.6888 25.3518 32.8132 26.6964 32.3621 27.9173C31.911 29.1382 30.931 30.0654 29.7021 30.4673C26.2799 31.6109 22.6555 32.1827 19.031 32.1827ZM19.031 6.12635C14.5355 6.12635 10.8643 9.75817 10.8643 14.24V18.7064C10.8643 19.8345 10.3977 21.5036 9.82213 22.4773L8.03324 25.4291C7.69102 26.0009 7.59768 26.6036 7.79991 27.1136C7.98657 27.6391 8.45324 28.0409 9.09102 28.2573C15.5932 30.4209 22.4844 30.4209 28.9866 28.2573C29.5466 28.0718 29.9821 27.6545 30.1844 27.0982C30.3866 26.5418 30.3399 25.9391 30.0288 25.4291L28.2399 22.4773C27.6488 21.4727 27.1977 19.8191 27.1977 18.6909V14.24C27.1977 9.75817 23.5421 6.12635 19.031 6.12635Z" fill="#587897"/>
<path d="M21.9239 6.54359C21.815 6.54359 21.7061 6.52814 21.5972 6.49723C21.1461 6.37359 20.7105 6.28086 20.2905 6.21905C18.9683 6.04905 17.6928 6.14177 16.495 6.49723C16.0594 6.63632 15.5928 6.49723 15.2972 6.17268C15.0016 5.84814 14.9083 5.3845 15.0794 4.96723C15.7172 3.3445 17.2728 2.27814 19.0461 2.27814C20.8194 2.27814 22.375 3.32905 23.0128 4.96723C23.1683 5.3845 23.0905 5.84814 22.795 6.17268C22.5616 6.41996 22.235 6.54359 21.9239 6.54359Z" fill="#587897"/>
<path d="M19.0306 35.7063C17.4906 35.7063 15.9973 35.0882 14.9084 34.0063C13.8195 32.9245 13.1973 31.4409 13.1973 29.9109H15.5306C15.5306 30.8227 15.9039 31.7191 16.5573 32.3682C17.2106 33.0173 18.1128 33.3882 19.0306 33.3882C20.9595 33.3882 22.5306 31.8273 22.5306 29.9109H24.8639C24.8639 33.11 22.2506 35.7063 19.0306 35.7063Z" fill="#587897"/>
</svg>
