<svg width="29" height="29" viewBox="0 0 29 29" fill="none" xmlns="http://www.w3.org/2000/svg">
<path d="M13.0383 18.3304C12.7967 18.3304 12.5671 18.2338 12.3979 18.0646L9.47375 15.1404C9.12333 14.79 9.12333 14.21 9.47375 13.8596C9.82417 13.5092 10.4042 13.5092 10.7546 13.8596L13.0383 16.1433L18.2342 10.9475C18.5846 10.5971 19.1646 10.5971 19.515 10.9475C19.8654 11.2979 19.8654 11.8779 19.515 12.2283L13.6787 18.0646C13.5096 18.2338 13.28 18.3304 13.0383 18.3304Z" fill="#8EAFCF"/>
<path d="M14.5001 27.4896C13.7389 27.4896 12.9776 27.2358 12.3856 26.7283L10.4764 25.085C10.2831 24.9158 9.79973 24.7467 9.54598 24.7467H7.46764C5.67931 24.7467 4.22931 23.2967 4.22931 21.5083V19.4421C4.22931 19.1883 4.06014 18.7171 3.89098 18.5238L2.25973 16.6025C1.26889 15.4304 1.26889 13.5817 2.25973 12.4096L3.89098 10.4883C4.06014 10.295 4.22931 9.82376 4.22931 9.57001V7.49167C4.22931 5.70334 5.67931 4.25334 7.46764 4.25334H9.55806C9.81181 4.25334 10.2951 4.07209 10.4885 3.91501L12.3976 2.27167C13.5818 1.25667 15.4306 1.25667 16.6147 2.27167L18.5239 3.91501C18.7172 4.08417 19.2006 4.25334 19.4543 4.25334H21.5085C23.2968 4.25334 24.7468 5.70334 24.7468 7.49167V9.54584C24.7468 9.79959 24.9281 10.2829 25.0972 10.4763L26.7406 12.3854C27.7556 13.5696 27.7556 15.4183 26.7406 16.6025L25.0972 18.5117C24.9281 18.705 24.7468 19.1883 24.7468 19.4421V21.4963C24.7468 23.2846 23.2968 24.7346 21.5085 24.7346H19.4543C19.2006 24.7346 18.7172 24.9158 18.5239 25.0729L16.6147 26.7163C16.0226 27.2358 15.2614 27.4896 14.5001 27.4896ZM7.46764 6.06584C6.68223 6.06584 6.04181 6.70625 6.04181 7.49167V9.55792C6.04181 10.2467 5.71556 11.1288 5.26848 11.6483L3.63723 13.5696C3.21431 14.065 3.21431 14.9229 3.63723 15.4183L5.26848 17.3396C5.71556 17.8713 6.04181 18.7413 6.04181 19.43V21.4963C6.04181 22.2817 6.68223 22.9221 7.46764 22.9221H9.55806C10.2589 22.9221 11.141 23.2483 11.6726 23.7075L13.5818 25.3508C14.0772 25.7738 14.9472 25.7738 15.4426 25.3508L17.3518 23.7075C17.8835 23.2604 18.7656 22.9221 19.4664 22.9221H21.5206C22.306 22.9221 22.9464 22.2817 22.9464 21.4963V19.4421C22.9464 18.7413 23.2726 17.8592 23.7318 17.3275L25.3751 15.4183C25.7981 14.9229 25.7981 14.0529 25.3751 13.5575L23.7318 11.6483C23.2726 11.1167 22.9464 10.2346 22.9464 9.53376V7.49167C22.9464 6.70625 22.306 6.06584 21.5206 6.06584H19.4664C18.7656 6.06584 17.8835 5.73959 17.3518 5.28042L15.4426 3.63709C14.9472 3.21417 14.0772 3.21417 13.5818 3.63709L11.6726 5.29251C11.141 5.73959 10.2468 6.06584 9.55806 6.06584H7.46764Z" fill="#8EAFCF"/>
</svg>
