<svg width="26" height="27" viewBox="0 0 26 27" fill="none" xmlns="http://www.w3.org/2000/svg">
<path d="M12.4788 24.0896C6.59342 24.0896 1.80176 19.0935 1.80176 12.9569C1.80176 6.82042 6.59342 1.82431 12.4788 1.82431C18.3643 1.82431 23.1559 6.82042 23.1559 12.9569C23.1559 19.0935 18.3643 24.0896 12.4788 24.0896ZM12.4788 3.45348C7.44759 3.45348 3.36426 7.72189 3.36426 12.9569C3.36426 18.192 7.44759 22.4604 12.4788 22.4604C17.5101 22.4604 21.5934 18.192 21.5934 12.9569C21.5934 7.72189 17.5101 3.45348 12.4788 3.45348Z" fill="#587897"/>
<path d="M23.4167 25.1757C23.2187 25.1757 23.0208 25.0997 22.8646 24.9367L20.7812 22.7645C20.4792 22.4496 20.4792 21.9282 20.7812 21.6132C21.0833 21.2983 21.5833 21.2983 21.8854 21.6132L23.9688 23.7855C24.2708 24.1004 24.2708 24.6218 23.9688 24.9367C23.8125 25.0997 23.6146 25.1757 23.4167 25.1757Z" fill="#587897"/>
</svg>
