<svg width="39" height="40" viewBox="0 0 39 40" fill="none" xmlns="http://www.w3.org/2000/svg">
<path d="M18.6875 35.6542C9.50625 35.6542 2.03125 28.2686 2.03125 19.1972C2.03125 10.1259 9.50625 2.7403 18.6875 2.7403C27.8687 2.7403 35.3438 10.1259 35.3438 19.1972C35.3438 28.2686 27.8687 35.6542 18.6875 35.6542ZM18.6875 5.14863C10.8387 5.14863 4.46875 11.4585 4.46875 19.1972C4.46875 26.936 10.8387 33.2458 18.6875 33.2458C26.5362 33.2458 32.9062 26.936 32.9062 19.1972C32.9062 11.4585 26.5362 5.14863 18.6875 5.14863Z" fill="#587897"/>
<path d="M35.7498 37.2597C35.4411 37.2597 35.1323 37.1473 34.8886 36.9065L31.6386 33.6954C31.1673 33.2298 31.1673 32.4591 31.6386 31.9935C32.1098 31.5279 32.8898 31.5279 33.3611 31.9935L36.6111 35.2046C37.0823 35.6702 37.0823 36.4409 36.6111 36.9065C36.3673 37.1473 36.0586 37.2597 35.7498 37.2597Z" fill="#587897"/>
</svg>
