<svg width="19" height="19" viewBox="0 0 19 19" fill="none" xmlns="http://www.w3.org/2000/svg">
<path d="M8.54178 12.0096C8.38345 12.0096 8.23303 11.9462 8.1222 11.8354L6.20637 9.91958C5.97678 9.68999 5.97678 9.30999 6.20637 9.08041C6.43595 8.85083 6.81595 8.85083 7.04553 9.08041L8.54178 10.5767L11.946 7.17249C12.1755 6.94291 12.5555 6.94291 12.7851 7.17249C13.0147 7.40208 13.0147 7.78208 12.7851 8.01166L8.96137 11.8354C8.85053 11.9462 8.70012 12.0096 8.54178 12.0096Z" fill="#8EAFCF"/>
<path d="M9.49962 18.0104C9.00087 18.0104 8.50212 17.8442 8.11421 17.5117L6.86337 16.435C6.73671 16.3242 6.42004 16.2133 6.25379 16.2133H4.89212C3.72046 16.2133 2.77046 15.2633 2.77046 14.0917V12.7379C2.77046 12.5717 2.65962 12.2629 2.54879 12.1363L1.48004 10.8775C0.830872 10.1096 0.830872 8.89834 1.48004 8.13043L2.54879 6.87168C2.65962 6.74501 2.77046 6.43626 2.77046 6.27001V4.90834C2.77046 3.73668 3.72046 2.78668 4.89212 2.78668H6.26171C6.42796 2.78668 6.74462 2.66793 6.87129 2.56501L8.12212 1.48834C8.89796 0.823344 10.1092 0.823344 10.885 1.48834L12.1359 2.56501C12.2625 2.67584 12.5792 2.78668 12.7455 2.78668H14.0913C15.263 2.78668 16.213 3.73668 16.213 4.90834V6.25418C16.213 6.42043 16.3317 6.73709 16.4425 6.86376L17.5192 8.11459C18.1842 8.89043 18.1842 10.1017 17.5192 10.8775L16.4425 12.1283C16.3317 12.255 16.213 12.5717 16.213 12.7379V14.0838C16.213 15.2554 15.263 16.2054 14.0913 16.2054H12.7455C12.5792 16.2054 12.2625 16.3242 12.1359 16.4271L10.885 17.5038C10.4971 17.8442 9.99837 18.0104 9.49962 18.0104ZM4.89212 3.97418C4.37754 3.97418 3.95796 4.39376 3.95796 4.90834V6.26209C3.95796 6.71334 3.74421 7.29126 3.45129 7.63168L2.38254 8.89043C2.10546 9.21501 2.10546 9.77709 2.38254 10.1017L3.45129 11.3604C3.74421 11.7088 3.95796 12.2788 3.95796 12.73V14.0838C3.95796 14.5983 4.37754 15.0179 4.89212 15.0179H6.26171C6.72087 15.0179 7.29879 15.2317 7.64712 15.5325L8.89796 16.6092C9.22254 16.8863 9.79254 16.8863 10.1171 16.6092L11.368 15.5325C11.7163 15.2396 12.2942 15.0179 12.7534 15.0179H14.0992C14.6138 15.0179 15.0334 14.5983 15.0334 14.0838V12.7379C15.0334 12.2788 15.2471 11.7008 15.548 11.3525L16.6246 10.1017C16.9017 9.77709 16.9017 9.20709 16.6246 8.88251L15.548 7.63168C15.2471 7.28334 15.0334 6.70543 15.0334 6.24626V4.90834C15.0334 4.39376 14.6138 3.97418 14.0992 3.97418H12.7534C12.2942 3.97418 11.7163 3.76043 11.368 3.45959L10.1171 2.38293C9.79254 2.10584 9.22254 2.10584 8.89796 2.38293L7.64712 3.46751C7.29879 3.76043 6.71296 3.97418 6.26171 3.97418H4.89212Z" fill="#8EAFCF"/>
</svg>
