<svg width="24" height="24" viewBox="0 0 24 24" fill="none" xmlns="http://www.w3.org/2000/svg">
<path d="M12 12.25C11.56 12.25 11.12 12.14 10.72 11.93L4.21 8.42001C3.62 8.10001 3.25 7.47001 3.25 6.77001C3.25 6.07001 3.62 5.44001 4.21 5.12001L10.72 1.61001C11.52 1.18001 12.48 1.18001 13.27 1.61001L19.78 5.12001C20.37 5.44001 20.74 6.07001 20.74 6.77001C20.74 7.47001 20.37 8.10001 19.78 8.42001L13.27 11.93C12.88 12.15 12.44 12.25 12 12.25ZM12 2.78001C11.81 2.78001 11.61 2.83001 11.43 2.93001L4.93 6.43001C4.76 6.52001 4.75 6.71001 4.75 6.77001C4.75 6.83001 4.76 7.02001 4.93 7.10001L11.44 10.61C11.8 10.8 12.21 10.8 12.57 10.61L19.08 7.10001C19.24 7.01001 19.26 6.82001 19.26 6.77001C19.26 6.71001 19.25 6.52001 19.08 6.44001L12.57 2.93001C12.39 2.83001 12.19 2.78001 12 2.78001Z" fill="#8EAFCF"/>
<path d="M9.78 22.72C9.5 22.72 9.21 22.65 8.95 22.52L2.89 19.5C1.88 18.99 1.25 17.97 1.25 16.84V11.12C1.25 10.47 1.58 9.88 2.13 9.54C2.69 9.2 3.36 9.17 3.94 9.46L10 12.48C11.01 12.99 11.64 14 11.64 15.14V20.86C11.64 21.51 11.31 22.1 10.76 22.44C10.46 22.63 10.12 22.72 9.78 22.72ZM3.11 10.76C3.03 10.76 2.96 10.79 2.92 10.81C2.86 10.85 2.75 10.94 2.75 11.12V16.84C2.75 17.4 3.06 17.91 3.56 18.16L9.61 21.19C9.77 21.27 9.9 21.21 9.96 21.18C10.02 21.14 10.13 21.05 10.13 20.87V15.15C10.13 14.59 9.82 14.08 9.32 13.83L3.27 10.8C3.21 10.77 3.16 10.76 3.11 10.76Z" fill="#8EAFCF"/>
<path d="M14.2204 22.72C13.8804 22.72 13.5404 22.63 13.2404 22.44C12.6904 22.1 12.3604 21.51 12.3604 20.86V15.14C12.3604 14.01 12.9904 12.99 14.0004 12.48L20.0504 9.45C20.6304 9.16 21.3104 9.19 21.8604 9.53C22.4104 9.87 22.7404 10.46 22.7404 11.11V16.83C22.7404 17.96 22.1104 18.98 21.1004 19.49L15.0504 22.52C14.7904 22.66 14.5004 22.72 14.2204 22.72ZM20.8904 10.76C20.8404 10.76 20.7904 10.77 20.7304 10.8L14.6804 13.83C14.1804 14.08 13.8704 14.58 13.8704 15.15V20.87C13.8704 21.05 13.9804 21.14 14.0404 21.18C14.1004 21.22 14.2304 21.27 14.3904 21.19L20.4404 18.16C20.9404 17.91 21.2504 17.4 21.2504 16.84V11.12C21.2504 10.94 21.1404 10.85 21.0804 10.81C21.0404 10.79 20.9704 10.76 20.8904 10.76Z" fill="#8EAFCF"/>
</svg>
