<svg width="25" height="25" viewBox="0 0 25 25" fill="none" xmlns="http://www.w3.org/2000/svg">
<path d="M13.5045 17.0209H11.4952C10.6614 17.0209 9.98828 17.694 9.98828 18.5278V22.044H15.0114V18.5278C15.0114 17.694 14.3383 17.0209 13.5045 17.0209Z" stroke="#8EAFCF" stroke-width="1.5" stroke-miterlimit="10" stroke-linejoin="round"/>
<path d="M10.561 3.27751L3.59893 8.8532C2.81532 9.47607 2.313 10.7921 2.48379 11.7767L3.81995 19.7735C4.06106 21.2001 5.42735 22.3554 6.87402 22.3554H18.1259C19.5625 22.3554 20.9388 21.1901 21.1799 19.7735L22.5161 11.7767C22.6768 10.7921 22.1745 9.47607 21.401 8.8532L14.4389 3.28755C13.3639 2.42357 11.6259 2.42357 10.561 3.27751Z" stroke="#8EAFCF" stroke-width="1.5" stroke-linecap="round" stroke-linejoin="round"/>
</svg>
