<svg width="28" height="28" viewBox="0 0 28 28" fill="none" xmlns="http://www.w3.org/2000/svg">
<path fill-rule="evenodd" clip-rule="evenodd" d="M14 0C6.26801 0 0 6.26801 0 14C0 21.732 6.26801 28 14 28C21.732 28 28 21.732 28 14C28 6.26801 21.732 0 14 0ZM10.9219 6.57844C11.7184 6.5422 11.9729 6.53333 14.0007 6.53333H13.9984C16.0268 6.53333 16.2804 6.5422 17.0768 6.57844C17.8717 6.61485 18.4146 6.74069 18.8906 6.92534C19.3822 7.11589 19.7975 7.37101 20.2129 7.78635C20.6282 8.20137 20.8833 8.61796 21.0747 9.10905C21.2582 9.58381 21.3842 10.1264 21.4216 10.9213C21.4573 11.7177 21.4667 11.9722 21.4667 14.0001C21.4667 16.0279 21.4573 16.2818 21.4216 17.0782C21.3842 17.8728 21.2582 18.4156 21.0747 18.8905C20.8833 19.3814 20.6282 19.798 20.2129 20.213C19.798 20.6284 19.382 20.8841 18.8911 21.0748C18.416 21.2595 17.8728 21.3853 17.0779 21.4217C16.2815 21.458 16.0278 21.4668 13.9998 21.4668C11.9721 21.4668 11.7177 21.458 10.9213 21.4217C10.1265 21.3853 9.58381 21.2595 9.10874 21.0748C8.61796 20.8841 8.20137 20.6284 7.7865 20.213C7.37132 19.798 7.11621 19.3814 6.92534 18.8903C6.74085 18.4156 6.615 17.873 6.57844 17.0781C6.54236 16.2816 6.53333 16.0279 6.53333 14.0001C6.53333 11.9722 6.54267 11.7176 6.57829 10.9211C6.61407 10.1265 6.74007 9.58381 6.92518 9.10889C7.11652 8.61796 7.37163 8.20137 7.78697 7.78635C8.20199 7.37116 8.61858 7.11605 9.10967 6.92534C9.58443 6.74069 10.127 6.61485 10.9219 6.57844Z" fill="white"/>
<path fill-rule="evenodd" clip-rule="evenodd" d="M13.3307 7.87882C13.4608 7.87862 13.6007 7.87868 13.7517 7.87875L14.0006 7.87882C15.9942 7.87882 16.2305 7.88598 17.0178 7.92175C17.7458 7.95504 18.1409 8.07669 18.4041 8.17889C18.7525 8.31422 19.001 8.476 19.2621 8.73734C19.5235 8.99868 19.6853 9.24757 19.8209 9.59602C19.9231 9.85891 20.0449 10.254 20.078 10.982C20.1138 11.7691 20.1216 12.0056 20.1216 13.9983C20.1216 15.991 20.1138 16.2274 20.078 17.0145C20.0447 17.7425 19.9231 18.1377 19.8209 18.4006C19.6856 18.749 19.5235 18.9971 19.2621 19.2583C19.0008 19.5196 18.7527 19.6814 18.4041 19.8167C18.1412 19.9194 17.7458 20.0407 17.0178 20.074C16.2306 20.1098 15.9942 20.1176 14.0006 20.1176C12.0068 20.1176 11.7705 20.1098 10.9834 20.074C10.2554 20.0404 9.86026 19.9188 9.5969 19.8166C9.24845 19.6813 8.99956 19.5195 8.73823 19.2581C8.47689 18.9968 8.31511 18.7485 8.17946 18.3999C8.07726 18.137 7.95546 17.7419 7.92233 17.0139C7.88655 16.2268 7.87939 15.9903 7.87939 13.9964C7.87939 12.0025 7.88655 11.7673 7.92233 10.9802C7.95562 10.2522 8.07726 9.85704 8.17946 9.59384C8.3148 9.24539 8.47689 8.9965 8.73823 8.73516C8.99956 8.47383 9.24845 8.31205 9.5969 8.1764C9.8601 8.07373 10.2554 7.9524 10.9834 7.91895C11.6722 7.88784 11.9391 7.87851 13.3307 7.87695V7.87882ZM17.9863 9.11861C17.4916 9.11861 17.0902 9.51948 17.0902 10.0143C17.0902 10.509 17.4916 10.9103 17.9863 10.9103C18.4809 10.9103 18.8823 10.509 18.8823 10.0143C18.8823 9.51964 18.4809 9.1183 17.9863 9.1183V9.11861ZM10.1661 14C10.1661 11.8824 11.8829 10.1656 14.0004 10.1655C16.118 10.1655 17.8344 11.8824 17.8344 14C17.8344 16.1176 16.1182 17.8337 14.0006 17.8337C11.883 17.8337 10.1661 16.1176 10.1661 14Z" fill="white"/>
<path d="M14.0006 11.5112C15.3751 11.5112 16.4895 12.6255 16.4895 14.0001C16.4895 15.3746 15.3751 16.4891 14.0006 16.4891C12.626 16.4891 11.5117 15.3746 11.5117 14.0001C11.5117 12.6255 12.626 11.5112 14.0006 11.5112Z" fill="white"/>
</svg>
