<svg width="38" height="38" viewBox="0 0 38 38" fill="none" xmlns="http://www.w3.org/2000/svg">
<path d="M19.0315 32.1827C15.4071 32.1827 11.7826 31.6109 8.34484 30.4673C7.03817 30.0191 6.04262 29.1073 5.60706 27.9173C5.15595 26.7273 5.3115 25.4136 6.02706 24.2391L7.81595 21.2873C8.18928 20.6691 8.5315 19.4327 8.5315 18.7064V14.24C8.5315 8.49089 13.2448 3.80817 19.0315 3.80817C24.8182 3.80817 29.5315 8.49089 29.5315 14.24V18.7064C29.5315 19.4173 29.8737 20.6691 30.2471 21.3027L32.0204 24.2391C32.6893 25.3518 32.8137 26.6964 32.3626 27.9173C31.9115 29.1382 30.9315 30.0654 29.7026 30.4673C26.2804 31.6109 22.656 32.1827 19.0315 32.1827ZM19.0315 6.12635C14.5359 6.12635 10.8648 9.75817 10.8648 14.24V18.7064C10.8648 19.8345 10.3982 21.5036 9.82262 22.4773L8.03373 25.4291C7.6915 26.0009 7.59817 26.6036 7.80039 27.1136C7.98706 27.6391 8.45373 28.0409 9.0915 28.2573C15.5937 30.4209 22.4848 30.4209 28.9871 28.2573C29.5471 28.0718 29.9826 27.6545 30.1848 27.0982C30.3871 26.5418 30.3404 25.9391 30.0293 25.4291L28.2404 22.4773C27.6493 21.4727 27.1982 19.8191 27.1982 18.6909V14.24C27.1982 9.75817 23.5426 6.12635 19.0315 6.12635Z" fill="#587897"/>
<path d="M21.9248 6.54359C21.8159 6.54359 21.7071 6.52814 21.5982 6.49723C21.1471 6.37359 20.7115 6.28086 20.2915 6.21905C18.9693 6.04905 17.6937 6.14177 16.496 6.49723C16.0604 6.63632 15.5937 6.49723 15.2982 6.17268C15.0026 5.84814 14.9093 5.3845 15.0804 4.96723C15.7182 3.3445 17.2737 2.27814 19.0471 2.27814C20.8204 2.27814 22.3759 3.32905 23.0137 4.96723C23.1693 5.3845 23.0915 5.84814 22.7959 6.17268C22.5626 6.41996 22.2359 6.54359 21.9248 6.54359Z" fill="#587897"/>
<path d="M19.0311 35.7063C17.4911 35.7063 15.9978 35.0882 14.9089 34.0063C13.82 32.9245 13.1978 31.4409 13.1978 29.9109H15.5311C15.5311 30.8227 15.9044 31.7191 16.5578 32.3682C17.2111 33.0173 18.1133 33.3882 19.0311 33.3882C20.96 33.3882 22.5311 31.8273 22.5311 29.9109H24.8644C24.8644 33.11 22.2511 35.7063 19.0311 35.7063Z" fill="#587897"/>
</svg>
